<svg
  xmlns="http://www.w3.org/2000/svg" width="750" height="750" viewBox="0 0 7500 7500">
  <g fill="rgb(251,165,16)">
    <g>
      <path d="M3605 7281 c-45 -7 -82 -18 -140 -40 -11 -5 -54 -25 -95 -46 -41 -21 -85 -43 -97 -49 -13 -6 -23 -14 -23 -18 0 -5 -7 -8 -15 -8 -8 0 -15 -3 -15 -8 0 -4 -17 -15 -37 -25 -21 -10 -58 -31 -83 -46 -25 -16 -51 -30 -57 -30 -7 -1 -13 -5 -13 -11 0 -5 -9 -10 -19 -10 -11 0 -21 -3 -23 -7 -4 -9 -71 -52 -113 -73 -16 -8 -53 -29 -82 -47 -29 -18 -57 -33 -63 -33 -5 0 -10 -4 -10 -8 0 -5 -16 -14 -35 -22 -19 -8 -35 -17 -35 -22 0 -4 -9 -8 -20 -8 -11 0 -20 -3 -20 -7 0 -8 -31 -28 -116 -73 -29 -15 -69 -39 -90 -54 -21 -14 -44 -26 -51 -26 -7 0 -13 -4 -13 -10 0 -5 -9 -10 -20 -10 -11 0 -20 -4 -20 -10 0 -5 -5 -10 -11 -10 -6 0 -23 -8 -37 -19 -15 -10 -48 -30 -73 -43 -77 -43 -94 -53 -99 -58 -4 -4 -39 -24 -95 -54 -11 -6 -22 -13 -25 -16 -3 -3 -18 -12 -35 -20 -16 -8 -53 -29 -82 -47 -29 -18 -57 -33 -63 -33 -5 0 -10 -4 -10 -10 0 -5 -9 -10 -20 -10 -11 0 -20 -4 -20 -10 0 -5 -5 -10 -12 -10 -6 0 -25 -10 -42 -23 -17 -12 -44 -29 -61 -37 -16 -8 -53 -29 -82 -47 -29 -18 -57 -33 -63 -33 -5 0 -10 -4 -10 -8 0 -5 -16 -14 -35 -22 -19 -8 -35 -17 -35 -22 0 -4 -9 -8 -20 -8 -11 0 -20 -4 -20 -8 0 -5 -10 -14 -22 -20 -13 -6 -59 -32 -103 -57 -44 -25 -95 -53 -113 -62 -17 -9 -32 -20 -32 -25 0 -4 -9 -8 -20 -8 -11 0 -20 -4 -20 -9 0 -5 -8 -11 -17 -14 -10 -4 -36 -17 -58 -31 -22 -14 -51 -31 -65 -39 -47 -25 -75 -42 -80 -47 -3 -3 -18 -14 -33 -23 -53 -34 -144 -118 -191 -177 -29 -37 -86 -148 -86 -170 0 -10 -4 -21 -9 -24 -5 -3 -12 -32 -16 -63 -11 -75 -11 -3018 0 -3101 4 -34 11 -65 16 -68 5 -3 9 -16 9 -29 0 -13 5 -27 10 -30 6 -3 10 -13 10 -21 0 -27 85 -147 149 -211 34 -35 65 -63 67 -63 3 0 33 -19 67 -42 34 -24 71 -48 82 -54 77 -42 121 -68 130 -74 10 -8 39 -25 135 -78 25 -14 57 -33 72 -43 14 -11 31 -19 37 -19 6 0 11 -4 11 -10 0 -5 7 -10 15 -10 8 0 39 -16 69 -35 30 -19 60 -35 66 -35 5 0 10 -4 10 -9 0 -5 8 -11 17 -14 10 -4 45 -22 78 -42 33 -20 68 -39 77 -42 10 -3 18 -9 18 -13 0 -4 8 -10 17 -13 10 -4 36 -17 58 -31 22 -14 51 -31 65 -39 100 -56 129 -72 160 -90 19 -12 37 -24 40 -27 3 -3 21 -14 40 -23 19 -10 53 -28 75 -42 22 -13 51 -30 65 -38 55 -31 101 -57 139 -81 22 -15 45 -26 51 -26 5 0 10 -3 10 -8 0 -4 15 -14 33 -21 38 -17 111 -63 115 -73 2 -5 12 -8 23 -8 10 0 19 -4 19 -8 0 -5 16 -14 35 -22 19 -8 35 -17 35 -22 0 -4 5 -8 10 -8 6 0 36 -16 66 -35 30 -19 57 -35 60 -35 3 0 30 -16 60 -35 30 -19 59 -35 64 -35 6 0 10 -3 10 -8 0 -4 15 -14 33 -21 38 -17 111 -63 115 -73 2 -5 12 -8 23 -8 10 0 19 -4 19 -9 0 -5 8 -11 18 -14 9 -4 35 -18 57 -31 22 -14 55 -33 73 -43 17 -9 32 -20 32 -25 0 -4 6 -8 14 -8 8 0 31 -9 53 -20 83 -42 147 -70 163 -70 9 0 20 -4 25 -9 12 -11 92 -22 170 -23 54 -1 116 8 198 28 41 10 255 121 319 165 14 11 31 19 37 19 6 0 11 5 11 10 0 6 9 10 19 10 11 0 21 3 23 8 4 10 86 62 98 62 5 0 10 5 10 10 0 6 9 10 20 10 11 0 20 5 20 10 0 6 7 10 15 10 8 0 15 4 15 9 0 5 8 11 18 14 9 3 40 19 67 35 28 16 61 35 75 43 14 8 27 16 30 19 3 3 25 18 50 32 62 36 120 69 150 85 14 8 43 25 65 39 22 14 48 27 58 31 9 3 17 9 17 14 0 5 9 9 19 9 11 0 21 4 23 8 3 8 124 82 134 82 3 0 30 16 60 35 30 19 59 35 64 35 6 0 10 5 10 10 0 6 9 10 20 10 11 0 20 4 20 8 0 5 18 18 41 30 73 39 104 57 109 63 3 3 20 12 38 20 17 8 32 17 32 20 0 4 8 9 18 13 9 3 33 15 52 27 19 12 64 38 100 57 36 19 77 43 92 53 14 11 31 19 37 19 6 0 11 5 11 10 0 6 9 10 19 10 11 0 21 3 23 8 5 12 128 82 144 82 8 0 14 5 14 10 0 6 5 10 11 10 6 0 23 8 37 19 15 10 48 30 73 43 80 45 94 53 99 59 3 3 12 9 20 12 8 4 33 18 55 32 22 14 47 28 55 32 80 36 310 212 310 238 0 6 51 86 60 95 13 13 30 52 30 70 0 11 4 20 9 20 5 0 12 19 16 43 10 56 11 3194 1 3232 -7 28 -14 45 -40 105 -41 94 -116 185 -211 255 -22 17 -41 33 -43 38 -2 4 -8 7 -12 7 -13 0 -134 72 -138 82 -2 4 -12 8 -23 8 -10 0 -19 5 -19 10 0 6 -7 10 -15 10 -8 0 -15 5 -15 10 0 6 -9 10 -20 10 -11 0 -20 4 -20 9 0 5 -8 11 -17 14 -18 6 -94 48 -103 57 -3 3 -18 12 -35 20 -16 8 -54 29 -83 47 -29 18 -57 33 -62 33 -6 0 -10 3 -10 8 0 4 -15 14 -32 21 -18 8 -62 33 -98 55 -36 23 -91 55 -122 71 -32 16 -58 32 -58 35 0 4 -16 12 -35 20 -19 8 -35 16 -35 19 0 4 -15 13 -32 20 -32 14 -91 51 -115 71 -7 5 -17 10 -22 10 -10 0 -132 69 -141 80 -3 3 -21 14 -40 23 -19 10 -53 28 -75 42 -22 14 -48 28 -57 31 -10 4 -18 10 -18 15 0 5 -9 9 -20 9 -11 0 -20 5 -20 10 0 6 -4 10 -10 10 -5 0 -40 19 -77 43 -38 23 -81 49 -98 57 -16 8 -53 29 -82 47 -29 18 -57 33 -63 33 -5 0 -10 3 -10 8 0 4 -10 12 -23 18 -38 18 -121 66 -149 85 -14 11 -31 19 -37 19 -6 0 -11 5 -11 10 0 6 -5 10 -10 10 -6 0 -34 15 -63 33 -29 18 -65 39 -82 47 -33 16 -107 62 -115 70 -3 4 -21 14 -40 23 -19 10 -53 28 -75 42 -22 13 -55 32 -72 41 -18 9 -33 20 -33 25 0 5 -8 9 -18 9 -10 0 -22 4 -27 9 -6 5 -44 20 -85 34 -83 28 -198 39 -275 28z m220 -511 c3 -5 14 -10 24 -10 21 0 78 -27 86 -41 4 -5 15 -9 26 -9 10 0 19 -4 19 -9 0 -5 8 -11 18 -14 9 -4 40 -20 67 -37 28 -17 60 -36 73 -42 12 -6 22 -15 22 -20 0 -4 9 -8 20 -8 11 0 20 -4 20 -10 0 -5 5 -10 10 -10 10 0 90 -48 100 -61 3 -3 20 -12 38 -20 17 -8 32 -17 32 -21 0 -5 4 -8 9 -8 13 0 135 -73 139 -82 2 -5 10 -8 19 -8 8 0 33 -13 56 -29 23 -15 65 -41 92 -56 28 -15 70 -39 95 -53 25 -14 57 -33 72 -43 14 -11 31 -19 37 -19 6 0 11 -4 11 -10 0 -5 6 -10 13 -11 6 0 32 -14 57 -30 25 -15 62 -36 83 -46 20 -10 37 -21 37 -25 0 -5 4 -8 10 -8 5 0 41 -20 80 -45 39 -25 72 -45 74 -45 9 0 131 -75 134 -82 2 -5 12 -8 23 -8 10 0 19 -4 19 -9 0 -5 8 -11 18 -14 9 -4 35 -18 57 -32 22 -14 48 -28 58 -31 9 -4 17 -9 17 -13 0 -4 16 -13 35 -21 19 -8 35 -16 35 -19 0 -3 18 -15 40 -25 22 -10 48 -27 59 -37 11 -11 25 -19 30 -19 12 0 75 -34 116 -64 16 -11 48 -30 70 -42 70 -37 88 -48 165 -100 126 -86 250 -221 250 -273 0 -11 5 -23 10 -26 7 -4 10 -492 10 -1430 l0 -1424 -26 -48 c-25 -47 -150 -182 -168 -183 -6 0 -19 -9 -30 -19 -12 -10 -50 -34 -86 -53 -36 -19 -83 -46 -105 -59 -22 -14 -56 -33 -75 -42 -19 -10 -53 -28 -75 -42 -22 -14 -48 -28 -57 -31 -10 -4 -18 -9 -18 -13 0 -4 -16 -13 -35 -21 -19 -8 -35 -17 -35 -22 0 -4 -9 -8 -19 -8 -11 0 -21 -4 -23 -8 -3 -8 -124 -82 -133 -82 -3 0 -29 -16 -59 -35 -30 -19 -60 -35 -66 -35 -5 0 -10 -4 -10 -10 0 -5 -9 -10 -20 -10 -11 0 -20 -4 -20 -10 0 -5 -5 -10 -11 -10 -6 0 -23 -8 -37 -19 -15 -10 -47 -29 -72 -43 -90 -50 -124 -70 -174 -101 -28 -18 -64 -39 -81 -47 -16 -8 -53 -29 -82 -47 -29 -18 -57 -33 -63 -33 -5 0 -10 -4 -10 -10 0 -5 -9 -10 -20 -10 -11 0 -20 -4 -20 -10 0 -5 -4 -10 -10 -10 -5 0 -34 -16 -64 -35 -30 -19 -62 -35 -71 -35 -8 0 -15 -4 -15 -8 0 -5 -17 -17 -37 -28 -34 -18 -86 -47 -154 -85 -13 -8 -26 -16 -29 -19 -6 -6 -50 -31 -111 -62 -24 -13 -45 -26 -47 -30 -2 -5 -12 -8 -22 -8 -10 0 -20 -3 -22 -7 -4 -9 -70 -52 -113 -73 -16 -8 -32 -17 -35 -20 -8 -8 -69 -41 -135 -73 -33 -16 -68 -33 -77 -38 -10 -5 -26 -9 -36 -9 -10 0 -24 -6 -30 -13 -9 -8 -45 -12 -110 -12 -80 1 -105 5 -141 23 -25 12 -48 22 -53 22 -4 0 -42 20 -84 45 -41 25 -80 45 -85 45 -5 0 -9 5 -9 10 0 6 -7 10 -15 10 -8 0 -15 5 -15 10 0 6 -9 10 -20 10 -11 0 -20 5 -20 10 0 6 -5 10 -12 10 -6 0 -19 6 -27 14 -9 7 -47 30 -86 51 -38 21 -82 46 -97 56 -14 11 -31 19 -37 19 -6 0 -11 5 -11 10 0 6 -9 10 -20 10 -11 0 -20 4 -20 9 0 5 -8 11 -17 14 -10 4 -36 17 -58 31 -22 14 -58 35 -80 46 -22 11 -58 31 -80 45 -22 14 -48 28 -57 31 -10 4 -18 9 -18 13 0 4 -16 13 -35 21 -19 8 -35 17 -35 22 0 4 -9 8 -20 8 -11 0 -20 4 -20 9 0 5 -8 11 -17 15 -10 3 -34 15 -53 27 -19 12 -57 34 -85 49 -87 47 -115 65 -115 73 0 4 -9 7 -20 7 -11 0 -20 3 -20 8 0 4 -15 13 -32 21 -18 8 -44 22 -58 31 -14 10 -54 33 -90 52 -36 19 -84 47 -107 61 -24 15 -47 27 -53 27 -5 0 -10 3 -10 8 0 4 -15 13 -32 21 -18 8 -35 17 -38 20 -3 3 -21 14 -40 25 -19 10 -51 28 -70 39 -19 11 -55 31 -80 45 -25 14 -56 32 -70 41 -14 9 -38 23 -55 31 -16 8 -54 29 -83 47 -29 18 -57 33 -62 33 -6 0 -10 5 -10 10 0 6 -9 10 -20 10 -11 0 -20 5 -20 10 0 6 -5 10 -10 10 -10 0 -71 37 -115 70 -11 8 -46 41 -77 73 -53 53 -64 71 -97 150 -8 20 -11 403 -11 1429 l0 1402 21 60 c12 34 28 68 35 77 8 8 14 20 14 25 0 25 151 154 179 154 6 0 11 5 11 10 0 6 7 10 15 10 8 0 15 4 15 9 0 5 8 11 18 14 9 3 40 19 67 35 28 16 73 42 100 57 28 16 68 39 90 52 22 13 48 26 57 30 10 3 18 9 18 14 0 5 5 9 10 9 6 0 36 16 66 35 30 19 56 35 59 35 2 0 39 20 81 45 41 25 80 45 85 45 5 0 9 4 9 8 0 5 16 14 35 22 19 8 35 17 35 22 0 4 4 8 9 8 5 0 44 20 85 45 42 25 79 45 82 45 3 0 20 11 37 24 18 13 47 29 65 37 17 8 32 17 32 21 0 5 7 8 15 8 9 0 24 8 35 18 10 9 45 31 77 47 32 17 60 33 61 38 2 4 8 7 13 7 5 0 32 15 61 33 29 19 68 40 86 48 17 8 32 17 32 20 0 4 8 9 18 12 9 3 44 22 77 42 33 20 68 38 78 42 9 3 17 9 17 14 0 5 4 9 10 9 5 0 33 15 62 33 87 53 112 67 131 73 9 4 17 9 17 13 0 4 26 20 58 36 31 17 59 33 60 38 2 4 7 7 12 7 12 0 134 73 138 82 2 5 12 8 23 8 10 0 19 4 19 9 0 5 8 11 18 14 9 3 41 20 70 36 29 17 62 31 72 31 11 0 20 5 20 10 0 6 51 10 134 10 79 0 137 -4 141 -10z"></path>
      <path d="M2115 5268 c-38 -11 -82 -22 -97 -25 -16 -3 -28 -9 -28 -14 0 -5 -8 -9 -18 -9 -28 0 -179 -120 -222 -177 -50 -67 -90 -139 -90 -163 0 -10 -4 -21 -9 -24 -24 -15 -38 -244 -21 -326 7 -30 16 -64 20 -75 19 -50 57 -123 80 -155 37 -51 140 -150 156 -150 8 0 14 -4 14 -8 0 -5 26 -21 58 -37 31 -15 65 -32 74 -36 10 -5 29 -9 42 -9 14 0 28 -4 31 -10 4 -6 67 -10 156 -10 141 0 149 -1 149 -19 0 -11 5 -23 10 -26 6 -3 10 -15 10 -26 0 -10 3 -19 8 -19 4 0 16 -20 27 -45 11 -25 23 -45 27 -45 5 0 8 -9 8 -20 0 -11 5 -20 10 -20 6 0 10 -7 10 -15 0 -9 16 -41 35 -71 19 -30 35 -59 35 -64 0 -6 5 -10 10 -10 6 0 10 -9 10 -20 0 -11 5 -20 10 -20 6 0 10 -5 10 -11 0 -6 8 -23 19 -37 10 -15 29 -47 43 -72 14 -25 35 -63 48 -85 12 -22 37 -67 55 -100 18 -33 42 -78 55 -100 29 -52 90 -164 104 -192 6 -13 14 -23 17 -23 3 0 14 -20 25 -45 10 -25 22 -45 26 -45 4 0 8 -4 8 -10 0 -5 17 -35 38 -66 20 -31 45 -70 55 -87 10 -16 24 -36 33 -44 31 -32 36 -52 17 -83 -9 -17 -21 -30 -25 -30 -4 0 -8 -9 -8 -20 0 -11 -3 -20 -8 -20 -9 0 -37 -64 -64 -143 -30 -93 -18 -332 21 -405 6 -9 16 -32 23 -49 7 -18 16 -33 20 -33 5 0 8 -7 8 -15 0 -8 5 -15 10 -15 6 0 10 -6 10 -12 0 -11 82 -99 130 -140 45 -38 168 -98 235 -114 53 -12 247 -16 258 -5 6 6 24 11 40 11 25 0 173 63 187 79 3 3 23 19 45 35 22 17 51 43 65 60 14 16 34 39 45 51 23 24 40 52 68 110 10 22 25 53 33 68 8 16 14 41 14 57 0 16 4 32 10 35 6 4 10 55 10 120 0 65 -4 116 -10 120 -5 3 -10 19 -10 34 0 15 -8 45 -19 67 -10 21 -27 57 -37 79 -10 22 -26 49 -36 59 -24 26 -23 67 2 94 11 12 20 24 20 28 0 3 15 27 34 53 19 25 43 62 54 82 42 75 47 84 58 99 7 8 21 32 33 53 12 20 29 52 39 70 58 101 78 138 108 195 46 85 58 106 64 112 3 3 19 32 36 65 17 33 51 98 76 145 25 47 58 110 74 140 16 30 32 57 36 58 5 2 8 12 8 23 0 10 5 19 10 19 6 0 10 6 10 13 0 6 15 44 34 82 19 39 37 78 40 88 5 15 21 17 155 17 89 0 152 4 156 10 3 6 17 10 31 10 13 0 64 21 112 46 120 63 230 177 281 289 7 17 17 38 22 47 5 10 9 28 9 41 0 13 5 28 11 34 11 11 7 256 -5 308 -14 56 -62 159 -83 176 -7 6 -13 17 -13 24 0 13 -108 125 -121 125 -4 0 -14 7 -23 15 -20 20 -124 75 -142 75 -8 0 -22 4 -32 9 -29 16 -149 41 -194 41 -24 0 -77 -10 -118 -21 -41 -12 -87 -24 -102 -26 -16 -3 -28 -9 -28 -14 0 -5 -7 -9 -15 -9 -14 0 -54 -18 -65 -30 -3 -3 -29 -23 -57 -44 -65 -47 -173 -184 -173 -221 0 -8 -4 -15 -10 -15 -5 0 -10 -9 -10 -19 0 -11 -4 -22 -9 -25 -15 -10 -23 -85 -23 -211 -1 -123 7 -191 23 -201 5 -3 9 -13 9 -22 0 -24 48 -115 82 -154 35 -42 35 -75 0 -113 -15 -16 -37 -45 -47 -62 -11 -18 -23 -33 -27 -33 -4 0 -8 -5 -8 -11 0 -5 -19 -38 -42 -72 -52 -76 -77 -117 -84 -139 -4 -10 -10 -18 -14 -18 -4 0 -10 -8 -14 -17 -3 -10 -15 -34 -27 -53 -12 -19 -34 -57 -49 -85 -47 -87 -65 -115 -72 -115 -5 0 -8 -9 -8 -20 0 -11 -4 -20 -10 -20 -5 0 -10 -9 -10 -20 0 -11 -3 -20 -7 -20 -5 0 -13 -10 -19 -23 -28 -58 -70 -132 -76 -135 -5 -2 -8 -12 -8 -23 0 -10 -3 -19 -7 -19 -5 0 -17 -19 -28 -43 -11 -23 -22 -44 -25 -47 -3 -3 -14 -23 -24 -45 -42 -93 -82 -170 -88 -173 -5 -2 -8 -12 -8 -22 0 -10 -4 -22 -10 -25 -5 -3 -10 -17 -10 -30 0 -13 -8 -28 -17 -34 -17 -8 -97 -1 -141 13 -9 3 -58 -1 -107 -9 -117 -19 -134 -19 -141 3 -4 9 -15 37 -26 62 -11 25 -27 61 -35 80 -27 61 -82 173 -113 228 -17 29 -30 60 -30 67 0 8 -4 15 -10 15 -5 0 -10 5 -10 11 0 6 -8 23 -19 37 -10 15 -34 56 -53 92 -19 36 -45 81 -56 100 -12 19 -30 52 -39 73 -10 20 -21 37 -25 37 -5 0 -8 7 -8 15 0 8 -4 15 -10 15 -5 0 -10 9 -10 19 0 11 -3 21 -7 23 -9 4 -52 70 -73 113 -8 17 -18 32 -21 35 -12 10 -79 121 -79 130 0 6 -4 10 -10 10 -5 0 -10 5 -10 12 0 11 -39 67 -87 126 -28 34 -29 56 -2 93 28 40 89 158 89 173 0 6 6 24 13 39 l12 27 305 0 c168 0 488 2 712 3 l408 2 25 27 c33 36 34 108 3 169 -23 42 -88 119 -101 119 -4 0 -24 11 -45 24 -20 12 -53 27 -72 31 -19 5 -310 10 -646 12 l-612 3 -17 33 c-29 57 -41 76 -58 95 -10 10 -17 22 -17 25 0 14 -56 70 -105 105 -27 20 -51 40 -53 44 -2 5 -12 8 -23 8 -10 0 -19 5 -19 10 0 6 -9 10 -19 10 -11 0 -22 4 -25 9 -3 5 -16 11 -28 14 -13 3 -60 15 -106 26 -99 25 -144 25 -237 -1z"></path>
    </g>
  </g>
</svg>