<svg xmlns="http://www.w3.org/2000/svg" version="1.1" width="50" height="50" viewBox="0 0 50 50"><style>.c{fill:#e31337;}</style>
<g transform="matrix(0.22 0 0 0.22 25 25)"><g><g transform="matrix(1 0 0 1 9.98 0)">
<path class="c" transform="translate(-120, -95)" d="M 157.27 107.26 C 157.59550718851202 107.28803453556017 157.8867940105528 107.47331027241086 158.05017441300336 107.75623731080088 C 158.21355481545393 108.0391643491909 158.22842414272077 108.38406145626317 158.09 108.68 L 111.34 189.53 C 111.16262187747556 189.81410152059811 110.85479421739262 189.9905393257676 110.52000000000001 190 L 81.94 190 C 81.60177905846827 190.00064518341455 81.2892867422873 189.8195387262217 81.1217047125343 189.52575294566708 C 80.95412268278129 189.23196716511242 80.95729050451172 188.87080105178703 81.13 188.58 L 127.88 107.73000000000002 C 128.04718686772347 107.44041661601455 128.35562313181325 107.26144742574024 128.69 107.26000000000002 Z M 129.48 84.09 C 129.14520578260738 84.08053932576762 128.83737812252446 83.90410152059812 128.66 83.62 L 81.13 1.42 C 80.9572905045117 1.129198948212992 80.95412268278127 0.7680328348875951 81.12170471253428 0.4742470543329369 C 81.28928674228729 0.1804612737782787 81.60177905846827 -0.0006451834145517754 81.94 0 L 110.52 0 C 110.85479421739261 0.009460674232391096 111.16262187747554 0.1858984794018836 111.33999999999999 0.46999999999999975 L 158.87 82.67 C 159.04270949548828 82.96080105178702 159.04587731721873 83.32196716511241 158.87829528746573 83.61575294566707 C 158.7107132577127 83.90953872622173 158.39822094153175 84.09064518341455 158.06 84.09 Z" stroke-linecap="round"/>
</g><g>
<path class="c" transform="translate(-110, -95)" d="M 135.13 1.42 C 134.95066767946898 1.1198413280657535 134.95275574583977 0.7449493368468116 135.1354204725965 0.4468069092668695 C 135.31808519935322 0.14866448168692736 135.65113723566728 -0.023453809637205003 136 0 L 164.62 0 C 164.95493536363585 -0.0006228108660463062 165.26433333858506 0.17890440916621442 165.43 0.4700000000000004 L 219.92000000000002 94.53 C 220.0900051921206 94.82027341417273 220.0900051921206 95.17972658582727 219.92000000000002 95.47 L 165.43 189.53 C 165.26433333858506 189.82109559083378 164.95493536363585 190.00062281086605 164.62 190 L 136 190 C 135.6599937714216 190.00428165843292 135.3441820026906 189.82460721332617 135.17414011865083 189.53014443852558 C 135.00409823461106 189.23568166372502 135.00633907417142 188.87234303636552 135.18 188.58 L 189.34 95 Z M 111.86999999999999 94.52 C 112.04863279495407 94.8294010767585 112.04863279495407 95.21059892324149 111.86999999999999 95.52 L 57.13 189.53 C 56.943565207359455 189.8021638588064 56.63489558643201 189.96486727222714 56.30500000000001 189.96486727222714 C 55.975104413568005 189.96486727222714 55.66643479264055 189.8021638588064 55.480000000000004 189.53 L 0.13 95.48 C -0.04863279495408171 95.1705989232415 -0.04863279495408185 94.78940107675851 0.12999999999999978 94.48 L 54.87 0.47 C 55.056434792640545 0.19783614119359838 55.36510441356799 0.0351327277728668 55.69499999999999 0.0351327277728668 C 56.024895586431995 0.0351327277728668 56.33356520735945 0.19783614119359844 56.519999999999996 0.47 Z" stroke-linecap="round"/>
</g></g></g></svg>